# xmcd
#
# Track frame offsets: 
#        150
#        15831
#        31935
#        53878
#        74793
#        97459
#        117419
#        142626
#        170822
#        194353
#        218164
#        248438
#        266053
#        279733
#        300143
#        318015
#        338700
#
# Disc length: 4793 seconds
#
# Revision: 0
# Processed by: cddbd v1.5.2PL0 Copyright (c) Steve Scherf et al.
# Submitted via: ExactAudioCopy v0.95a5
#
DISCID=f112b711
DTITLE=Elton John - Best Vol.2
DYEAR=2007
DGENRE=Polsk Punk
TTITLE0=Electriciry
TTITLE1=Bridge
TTITLE2=All that i`am allowed
TTITLE3=Wouldn`t have you any other way (NYC)
TTITLE4=Turn the lights out when you leave
TTITLE5=Tinderbox
TTITLE6=Don`t let the sun go down on me
TTITLE7=Tiny dancer
TTITLE8=Honky cat
TTITLE9=Bennie and the jets
TTITLE10=Someone saved my life tonight
TTITLE11=Crocodile rock
TTITLE12=I`m still standing
TTITLE13=I don`t wanna go on witn you like that
TTITLE14=Something about the way you look tonight
TTITLE15=I want love you
TTITLE16=This train don`t stop there anymore
EXTD=
EXTT0=
EXTT1=
EXTT2=
EXTT3=
EXTT4=
EXTT5=
EXTT6=
EXTT7=
EXTT8=
EXTT9=
EXTT10=
EXTT11=
EXTT12=
EXTT13=
EXTT14=
EXTT15=
EXTT16=
PLAYORDER=
